<?xml version="1.0" encoding="us-ascii" standalone="no"?><svg xmlns="http://www.w3.org/2000/svg" xmlns:xlink="http://www.w3.org/1999/xlink" contentStyleType="text/css" height="214px" preserveAspectRatio="none" style="width:415px;height:214px;background:#FFFFFF;" version="1.1" viewBox="0 0 415 214" width="415px" zoomAndPan="magnify"><defs/><g><rect fill="#FFFFFF" height="73.3516" style="stroke:#181818;stroke-width:1.0;" width="10" x="343.5" y="95.3125"/><rect fill="none" height="106.0547" style="stroke:#000000;stroke-width:1.5;" width="343.5" x="10" y="54.6094"/><line style="stroke:#181818;stroke-width:0.5;stroke-dasharray:5.0,5.0;" x1="52" x2="52" y1="37.6094" y2="177.6641"/><line style="stroke:#181818;stroke-width:0.5;stroke-dasharray:5.0,5.0;" x1="151" x2="151" y1="37.6094" y2="177.6641"/><line style="stroke:#181818;stroke-width:0.5;stroke-dasharray:5.0,5.0;" x1="348.5" x2="348.5" y1="37.6094" y2="177.6641"/><rect fill="#E2E2F0" height="31.6094" rx="2.5" ry="2.5" style="stroke:#181818;stroke-width:0.5;" width="64" x="20" y="5"/><text fill="#000000" font-family="sans-serif" font-size="14" lengthAdjust="spacing" textLength="50" x="27" y="26.5332">Sistema</text><rect fill="#E2E2F0" height="31.6094" rx="2.5" ry="2.5" style="stroke:#181818;stroke-width:0.5;" width="64" x="20" y="176.6641"/><text fill="#000000" font-family="sans-serif" font-size="14" lengthAdjust="spacing" textLength="50" x="27" y="198.1973">Sistema</text><rect fill="#E2E2F0" height="31.6094" rx="2.5" ry="2.5" style="stroke:#181818;stroke-width:0.5;" width="115" x="94" y="5"/><text fill="#000000" font-family="sans-serif" font-size="14" lengthAdjust="spacing" textLength="101" x="101" y="26.5332">Repositorio_IPS</text><rect fill="#E2E2F0" height="31.6094" rx="2.5" ry="2.5" style="stroke:#181818;stroke-width:0.5;" width="115" x="94" y="176.6641"/><text fill="#000000" font-family="sans-serif" font-size="14" lengthAdjust="spacing" textLength="101" x="101" y="198.1973">Repositorio_IPS</text><rect fill="#E2E2F0" height="31.6094" rx="2.5" ry="2.5" style="stroke:#181818;stroke-width:0.5;" width="122" x="287.5" y="5"/><text fill="#000000" font-family="sans-serif" font-size="14" lengthAdjust="spacing" textLength="108" x="294.5" y="26.5332">Respositorio_IPS</text><rect fill="#E2E2F0" height="31.6094" rx="2.5" ry="2.5" style="stroke:#181818;stroke-width:0.5;" width="122" x="287.5" y="176.6641"/><text fill="#000000" font-family="sans-serif" font-size="14" lengthAdjust="spacing" textLength="108" x="294.5" y="198.1973">Respositorio_IPS</text><rect fill="#FFFFFF" height="73.3516" style="stroke:#181818;stroke-width:1.0;" width="10" x="343.5" y="95.3125"/><path d="M10,54.6094 L259,54.6094 L259,62.9609 L249,72.9609 L10,72.9609 L10,54.6094 " fill="#EEEEEE" style="stroke:#000000;stroke-width:1.5;"/><rect fill="none" height="106.0547" style="stroke:#000000;stroke-width:1.5;" width="343.5" x="10" y="54.6094"/><text fill="#000000" font-family="sans-serif" font-size="13" font-weight="bold" lengthAdjust="spacing" textLength="204" x="25" y="69.1045">Summary Solicitud de Resumen</text><polygon fill="#181818" points="139.5,91.3125,149.5,95.3125,139.5,99.3125,143.5,95.3125" style="stroke:#181818;stroke-width:1.0;"/><line style="stroke:#181818;stroke-width:1.0;" x1="52" x2="145.5" y1="95.3125" y2="95.3125"/><text fill="#000000" font-family="sans-serif" font-size="13" lengthAdjust="spacing" textLength="63" x="59" y="90.4561">$Summary</text><line style="stroke:#181818;stroke-width:1.0;" x1="151.5" x2="193.5" y1="125.6641" y2="125.6641"/><line style="stroke:#181818;stroke-width:1.0;" x1="193.5" x2="193.5" y1="125.6641" y2="138.6641"/><line style="stroke:#181818;stroke-width:1.0;" x1="152.5" x2="193.5" y1="138.6641" y2="138.6641"/><polygon fill="#181818" points="162.5,134.6641,152.5,138.6641,162.5,142.6641,158.5,138.6641" style="stroke:#181818;stroke-width:1.0;"/><text fill="#000000" font-family="sans-serif" font-size="13" lengthAdjust="spacing" textLength="183" x="158.5" y="120.8076">Verifica factibilidad del resumen</text><polygon fill="#181818" points="63,148.6641,53,152.6641,63,156.6641,59,152.6641" style="stroke:#181818;stroke-width:1.0;"/><line style="stroke:#181818;stroke-width:1.0;stroke-dasharray:2.0,2.0;" x1="57" x2="150.5" y1="152.6641" y2="152.6641"/><!--SRC=[ROun2W9134Nxd2A5hHUmiBSJ1smbpcGbC3DPCedWxTULRHJRpt-Fzp2D6LEqHlR2f5MoU1GiZ1SUqRX3ak7S2FV7zpJh45SJlPtE2G-usr2WxF8a_s1V9_Y5_dgkR3999fnMqLsg55ehAjgMOUnX7RWNM000]--></g></svg>