<?xml version="1.0" encoding="us-ascii" standalone="no"?><svg xmlns="http://www.w3.org/2000/svg" xmlns:xlink="http://www.w3.org/1999/xlink" contentStyleType="text/css" height="230px" preserveAspectRatio="none" style="width:441px;height:230px;background:#FFFFFF;" version="1.1" viewBox="0 0 441 230" width="441px" zoomAndPan="magnify"><defs/><g><rect fill="#FFFFFF" height="89.7031" style="stroke:#181818;stroke-width:1.0;" width="10" x="223" y="95.3125"/><rect fill="none" height="122.4063" style="stroke:#000000;stroke-width:1.5;" width="425" x="10" y="54.6094"/><line style="stroke:#181818;stroke-width:0.5;stroke-dasharray:5.0,5.0;" x1="52" x2="52" y1="37.6094" y2="194.0156"/><line style="stroke:#181818;stroke-width:0.5;stroke-dasharray:5.0,5.0;" x1="227.5" x2="227.5" y1="37.6094" y2="194.0156"/><rect fill="#E2E2F0" height="31.6094" rx="2.5" ry="2.5" style="stroke:#181818;stroke-width:0.5;" width="64" x="20" y="5"/><text fill="#000000" font-family="sans-serif" font-size="14" lengthAdjust="spacing" textLength="50" x="27" y="26.5332">Sistema</text><rect fill="#E2E2F0" height="31.6094" rx="2.5" ry="2.5" style="stroke:#181818;stroke-width:0.5;" width="64" x="20" y="193.0156"/><text fill="#000000" font-family="sans-serif" font-size="14" lengthAdjust="spacing" textLength="50" x="27" y="214.5488">Sistema</text><rect fill="#E2E2F0" height="31.6094" rx="2.5" ry="2.5" style="stroke:#181818;stroke-width:0.5;" width="115" x="170.5" y="5"/><text fill="#000000" font-family="sans-serif" font-size="14" lengthAdjust="spacing" textLength="101" x="177.5" y="26.5332">Repositorio_IPS</text><rect fill="#E2E2F0" height="31.6094" rx="2.5" ry="2.5" style="stroke:#181818;stroke-width:0.5;" width="115" x="170.5" y="193.0156"/><text fill="#000000" font-family="sans-serif" font-size="14" lengthAdjust="spacing" textLength="101" x="177.5" y="214.5488">Repositorio_IPS</text><rect fill="#FFFFFF" height="89.7031" style="stroke:#181818;stroke-width:1.0;" width="10" x="223" y="95.3125"/><path d="M10,54.6094 L259,54.6094 L259,62.9609 L249,72.9609 L10,72.9609 L10,54.6094 " fill="#EEEEEE" style="stroke:#000000;stroke-width:1.5;"/><rect fill="none" height="122.4063" style="stroke:#000000;stroke-width:1.5;" width="425" x="10" y="54.6094"/><text fill="#000000" font-family="sans-serif" font-size="13" font-weight="bold" lengthAdjust="spacing" textLength="204" x="25" y="69.1045">Summary Solicitud de Resumen</text><polygon fill="#181818" points="211,91.3125,221,95.3125,211,99.3125,215,95.3125" style="stroke:#181818;stroke-width:1.0;"/><line style="stroke:#181818;stroke-width:1.0;" x1="52" x2="217" y1="95.3125" y2="95.3125"/><text fill="#000000" font-family="sans-serif" font-size="13" lengthAdjust="spacing" textLength="63" x="59" y="90.4561">$Summary</text><line style="stroke:#181818;stroke-width:1.0;" x1="233" x2="275" y1="125.6641" y2="125.6641"/><line style="stroke:#181818;stroke-width:1.0;" x1="275" x2="275" y1="125.6641" y2="138.6641"/><line style="stroke:#181818;stroke-width:1.0;" x1="234" x2="275" y1="138.6641" y2="138.6641"/><polygon fill="#181818" points="244,134.6641,234,138.6641,244,142.6641,240,138.6641" style="stroke:#181818;stroke-width:1.0;"/><text fill="#000000" font-family="sans-serif" font-size="13" lengthAdjust="spacing" textLength="183" x="240" y="120.8076">Verifica factibilidad del resumen</text><polygon fill="#181818" points="63,165.0156,53,169.0156,63,173.0156,59,169.0156" style="stroke:#181818;stroke-width:1.0;"/><line style="stroke:#181818;stroke-width:1.0;stroke-dasharray:2.0,2.0;" x1="57" x2="222" y1="169.0156" y2="169.0156"/><text fill="#000000" font-family="sans-serif" font-size="13" lengthAdjust="spacing" textLength="147" x="69" y="164.1592">Bundle Document o aviso</text><!--SRC=[ROwx2W8n44NxVCKjRFs1BIp4nauCsCgOpCf0abdoMDY_TmDhizfUpZsSTzOsmROOAI-m6iH9RHwUSUVI8YTZfLIEXEDfdIOjKZMBFgytYm67xMh8LPcfyfun-yzVpOEpZE88O_Uy98Yd7X6GjueVpUhvbWquj-G3uwAkmnKAcgMeuUJD1m00]--></g></svg>